<svg version="1.1" xmlns="http://www.w3.org/2000/svg" xmlns:xlink="http://www.w3.org/1999/xlink" width="16" height="16" viewBox="0,0,256,256"><g fill="#8b8992" fill-rule="none" stroke="none" stroke-width="1" stroke-linecap="butt" stroke-linejoin="miter" stroke-miterlimit="10" stroke-dasharray="" stroke-dashoffset="0" font-family="none" font-weight="none" font-size="none" text-anchor="none" style="mix-blend-mode: normal"><g transform="scale(16,16)"><path d="M11,6c0,1.65685 -1.34315,3 -3,3c-1.65685,0 -3,-1.34315 -3,-3c0,-1.65685 1.34315,-3 3,-3c1.65685,0 3,1.34315 3,3" fill-rule="nonzero"></path><path d="M0,8c0,-4.41828 3.58172,-8 8,-8c4.41828,0 8,3.58172 8,8c0,4.41828 -3.58172,8 -8,8c-4.41828,0 -8,-3.58172 -8,-8M8,1c-2.69011,0.00014 -5.14214,1.54187 -6.30804,3.96619c-1.16589,2.42433 -0.83936,5.30231 0.84004,7.40381c0.71,-1.144 2.273,-2.37 5.468,-2.37c3.195,0 4.757,1.225 5.468,2.37c1.6794,-2.1015 2.00593,-4.97948 0.84004,-7.40381c-1.16589,-2.42433 -3.61793,-3.96605 -6.30804,-3.96619" fill-rule="evenodd"></path></g></g></svg>